<svg id="Layer_1" data-name="Layer 1" xmlns="http://www.w3.org/2000/svg" xmlns:xlink="http://www.w3.org/1999/xlink" viewBox="0 0 360.21 461.14"><defs><linearGradient id="linear-gradient" x1="235.82" y1="434.15" x2="259.95" y2="172.3" gradientUnits="userSpaceOnUse"><stop offset="0" stop-color="#010101" stop-opacity="0"/><stop offset="0.95" stop-color="#010101"/></linearGradient><linearGradient id="linear-gradient-2" x1="244.69" y1="140.49" x2="288.2" y2="93.49" gradientUnits="userSpaceOnUse"><stop offset="0" stop-color="#010101" stop-opacity="0"/><stop offset="1" stop-color="#010101"/></linearGradient><linearGradient id="linear-gradient-3" x1="266.59" y1="122.2" x2="296.46" y2="96.86" xlink:href="#linear-gradient-2"/><linearGradient id="linear-gradient-4" x1="258.98" y1="144.93" x2="166.98" y2="164.58" xlink:href="#linear-gradient-2"/><linearGradient id="linear-gradient-5" x1="212.41" y1="380.57" x2="257.67" y2="164.24" xlink:href="#linear-gradient-2"/><linearGradient id="linear-gradient-6" x1="175.64" y1="211.59" x2="175.87" y2="234.9" xlink:href="#linear-gradient-2"/><linearGradient id="linear-gradient-7" x1="195.36" y1="211.4" x2="195.59" y2="234.71" xlink:href="#linear-gradient-2"/><linearGradient id="linear-gradient-8" x1="167.5" y1="148.23" x2="200.63" y2="160.8" xlink:href="#linear-gradient-2"/><linearGradient id="linear-gradient-9" x1="211.71" y1="117.6" x2="233.18" y2="112.52" xlink:href="#linear-gradient-2"/><linearGradient id="linear-gradient-10" x1="146.6" y1="86.29" x2="157" y2="136.52" xlink:href="#linear-gradient-2"/><linearGradient id="linear-gradient-11" x1="209.36" y1="16.22" x2="227.46" y2="64.49" xlink:href="#linear-gradient-2"/><linearGradient id="linear-gradient-12" x1="202.95" y1="70.66" x2="218.41" y2="70.06" xlink:href="#linear-gradient-2"/><linearGradient id="linear-gradient-13" x1="258.27" y1="425.55" x2="216.04" y2="-2.82" xlink:href="#linear-gradient-2"/><linearGradient id="linear-gradient-14" x1="213.15" y1="444.15" x2="144.52" y2="-251.92" xlink:href="#linear-gradient-2"/><linearGradient id="linear-gradient-15" x1="140.14" y1="171" x2="231.55" y2="167.08" xlink:href="#linear-gradient-2"/><linearGradient id="linear-gradient-16" x1="108.96" y1="252" x2="164.16" y2="267.08" xlink:href="#linear-gradient-2"/><linearGradient id="linear-gradient-17" x1="243.49" y1="397.95" x2="282.31" y2="397.95" xlink:href="#linear-gradient-2"/><linearGradient id="linear-gradient-18" x1="182.73" y1="398.73" x2="209.66" y2="398.73" xlink:href="#linear-gradient-2"/><linearGradient id="linear-gradient-19" x1="107.64" y1="210.1" x2="105.52" y2="295.17" xlink:href="#linear-gradient-2"/></defs><title>Bussiness man</title><path d="M263.36,2.55c-27.72-.81-57,7.39-75.63,27.92C170.91,49,164.75,74.9,150.1,95.2c-21.69,30-61.55,47.54-71.82,83.14C69,210.49,88,243.53,90.69,276.88c2.08,26.13-6,52.18-4.72,78.36a111.57,111.57,0,0,0,42.11,81.28c23.73,18.56,54.42,26.66,84.54,27.09s59.9-6.3,88.77-14.91a634.83,634.83,0,0,0,70.05-25.36c11.8-5.1,23.56-10.66,33.63-18.67,29.31-23.34,39.43-67.75,23.11-101.48-8.6-17.75-23.3-32.1-31.17-50.19-13.37-30.71-4.91-66.05-7.3-99.46-3-42-23.34-78.79-42.85-115.1C330.74,8.43,296.5,3.52,263.36,2.55Z" transform="translate(-75.76 -2.49)" fill="#68e1fd" opacity="0.24" style="isolation:isolate"/><path d="M156.7,401.23c-2.42.44-5.29,1.33-5.86,3.72-.79,3.37,3.58,5.4,7,6,46.53,8.15,94.18,5.93,141.35,3.48,7.5-.39,15.08-.8,22.32-2.85,1.76-.5,3.72-1.31,4.3-3.05s-.54-3.63-1.82-5c-6.83-7.19-17.93-7.68-27.85-7.68-24.68,0-49.37.13-74.05-.06-10.17-.07-20-.23-30.22.66C180.2,397.48,168.3,400.76,156.7,401.23Z" transform="translate(-75.76 -2.49)" fill="url(#linear-gradient)"/><rect x="70.56" y="225.84" width="71.94" height="57.92" rx="9.45" fill="#606161"/><path d="M291.12,131.37s-6.93,4.19-13.59-5.94-25-41.26-25-41.26l11.29-1.52S300.53,113.39,299,121A14.82,14.82,0,0,1,291.12,131.37Z" transform="translate(-75.76 -2.49)" fill="#ba816c"/><path d="M241.56,94.72s5-1.84,9.09-.78,45.18,20.07,48.47,28.24-1.72,15.41-4.75,15.68-15-.56-17.74-2.67-20.13-6.79-20.13-6.79Z" transform="translate(-75.76 -2.49)" fill="#68e1fd"/><path d="M240.65,94.12s5-1.84,9.1-.78,45.18,20.06,48.47,28.23-1.73,15.42-4.76,15.68-15-.55-17.73-2.66-20.14-6.79-20.14-6.79Z" transform="translate(-75.76 -2.49)" fill="url(#linear-gradient-2)"/><path d="M259.11,91.91a4,4,0,0,0-1.27,2.18,3.76,3.76,0,0,0,.27,1.44,92.29,92.29,0,0,0,15.45,28.16c3.94,4.9,14.66,15.49,20.81,14.17,4.48-1,5.54-7.12,6.92-11.49a7.61,7.61,0,0,0,.23-5c-.51-1.85-4.5-7.91-5.72-9.38-5.81-7-11.65-14-18.26-20.29-2.25-2.14-7.27-8.15-10.4-8.59S261.16,89.65,259.11,91.91Z" transform="translate(-75.76 -2.49)" fill="#68e1fd"/><path d="M258.88,91.91a4,4,0,0,0-1.27,2.18,3.59,3.59,0,0,0,.28,1.44,92.08,92.08,0,0,0,15.45,28.16c3.94,4.9,14.65,15.49,20.8,14.17,4.48-1,5.54-7.12,6.93-11.49a7.54,7.54,0,0,0,.22-5c-.5-1.85-4.49-7.91-5.72-9.38-5.81-7-11.65-14-18.25-20.29-2.26-2.14-7.28-8.15-10.41-8.59S260.93,89.65,258.88,91.91Z" transform="translate(-75.76 -2.49)" fill="url(#linear-gradient-3)"/><path d="M213.16,90s-17.42,7.55-19.47,9.26c-1.83,1.53,3.13,106.18,3.52,111.29s28.27,5.94,40.34,3.64a130.88,130.88,0,0,0,23.52-7.2s-4.95-99.07-6.16-104.65c-2-9.1-17.84-14.42-17.84-14.42Z" transform="translate(-75.76 -2.49)" fill="#68e1fd"/><path d="M261.2,207a.33.33,0,0,1-.12.06,131,131,0,0,1-23.37,7.14c-7.23,1.38-20.12,1.64-29.38.54-5-.61-8.87-1.6-10.35-3a1.87,1.87,0,0,1-.61-1.15c-.23-3.12-2.19-43.17-3.25-74.35-.67-20-1-36.35-.29-36.93C195.89,97.5,213.31,90,213.31,90l23.92-2.09s13.47,5.32,14.86,14.16C255,120.82,261.2,207,261.2,207Z" transform="translate(-75.76 -2.49)" fill="url(#linear-gradient-4)"/><path d="M235.91,91.6l6.33,6.94-1.81,4.67,3,3.62-10.71,33.34s4.53-35.75,2.72-40.95a19.74,19.74,0,0,1-1.14-9Z" transform="translate(-75.76 -2.49)" fill="#68e1fd"/><path d="M245.58,380.59s-1.69,13.77-.77,15.34,6.29,1.05,9.6.15,4.11-6.16,4.11-6.16l.22-4.34Z" transform="translate(-75.76 -2.49)" fill="#fff"/><path d="M189.09,374.77s-2.54,16.35-1.7,17.77,7.07-2.06,10.6-2.5,3.84-6.09,3.84-6.09l.6-3.66Z" transform="translate(-75.76 -2.49)" fill="#fff"/><path d="M212.39,79.73s1.54,11.15.32,15.28,7.15,10.6,15.51,9.41c7.91-1.13,7-5.68,7.18-7.36s-2.3-2.75-1.08-6.88S213.69,74.77,212.39,79.73Z" transform="translate(-75.76 -2.49)" fill="#ba816c"/><path d="M216.75,101.1s6.94,3.47,11.92,1.66a12.08,12.08,0,0,0,6.73-5.7l-.55,19.58-2,24.74-5.58-7.4Z" transform="translate(-75.76 -2.49)" fill="#fff"/><path d="M234.32,90.18c-.94,3.19.3,4.55.85,5.78A10.62,10.62,0,0,1,228,98.4c-5-.46-12.23-5.34-14.91-13.21l-.13-.43c-.23-2.82-.54-5-.54-5C213.69,74.77,235.54,86.06,234.32,90.18Z" transform="translate(-75.76 -2.49)" fill="#a6634c"/><path d="M235,106.58a20.32,20.32,0,0,0,.75-15.13,2.89,2.89,0,0,0-1.68,2A10.7,10.7,0,0,0,234,95a8.22,8.22,0,0,1-2.16,4.75,19.14,19.14,0,0,1-2.18,2c-1.1.92-1.14,1.12.22,1.67A12.79,12.79,0,0,1,235,106.58Z" transform="translate(-75.76 -2.49)" fill="#fff"/><path d="M179,152.09" transform="translate(-75.76 -2.49)" fill="none" stroke="#000" stroke-miterlimit="10" stroke-width="0.74"/><path d="M198.05,210.6l-3.47,70.64-6.64,97.88s3.82,4.59,14.82,4.73l19.78-99.62,9.29-50.63,8,49.39,3.34,102.86s7.77.16,17.85,1.06l6.54-101.42L261.07,207Z" transform="translate(-75.76 -2.49)" fill="#68e1fd"/><path d="M267.54,285.47,261,386.91c-2.51-.22-4.88-.38-7-.54-6.46-.42-10.86-.52-10.86-.52L239.8,283l-8-49.41-9.29,50.63-19.77,99.64a27.55,27.55,0,0,1-10.61-2,11.56,11.56,0,0,1-4.21-2.74l6.62-97.9L198,211.67l.06-1.06,10.64-.61,52.4-3.05V207Z" transform="translate(-75.76 -2.49)" fill="url(#linear-gradient-5)"/><path d="M242.32,57.86s-.29,22-2.5,27.73-7.71,10.32-12.75,9.87-12.23-5.34-14.91-13.21-2.69-26.5-1.62-28.95,6.85-9.93,20.16-7.5C239.87,47.48,242.62,54.5,242.32,57.86Z" transform="translate(-75.76 -2.49)" fill="#ba816c"/><path d="M210.93,67.74s-.38-5.12-3.9-3.74-.14,11,1.46,12a4.86,4.86,0,0,0,2.45.94" transform="translate(-75.76 -2.49)" fill="#ba816c"/><path d="M252.57,84.17s-5.35-3.34-6.13-4.92-4.8-14.5-1.79-15.17,13.81,4.55,14.57,4.88,4.64,13.69,4.64,13.69Z" transform="translate(-75.76 -2.49)" fill="#ba816c"/><polygon points="104.78 166.79 106.73 201.21 98.69 213.91 88.52 166.1 104.78 166.79" fill="#ba816c"/><path d="M194.53,98.71s-11.35,6.48-13.3,15.07S157.77,163.55,164.07,169l2.12,1.88a8.15,8.15,0,0,0,9.78.77l4.73-3,4.51-12.07,13.51-27.47S200,104.47,194.53,98.71Z" transform="translate(-75.76 -2.49)" fill="#68e1fd"/><path d="M190.56,222.76c-1.29.9-6.47,3.41-7.78,2.38-.55-.42-2-1.9-3.47-3.5-.78-.77-1.55-1.61-2.22-2.38-1.48-1.58-2.64-2.86-2.64-2.86s3.15-14.56,8-12.7a29.19,29.19,0,0,1,4.88,1.87c.81.51,2.38,6.87,3.09,11.73a30,30,0,0,1,.35,3.31C190.91,221.77,190.81,222.57,190.56,222.76Z" transform="translate(-75.76 -2.49)" fill="#ba816c"/><path d="M241.79,61.74l10.56,8.74a3,3,0,0,1,.75,2.57c-.15,1.81-2.11,11-2.11,11l-9.65-7.39Z" transform="translate(-75.76 -2.49)" fill="#606161"/><path d="M177.09,219.26c.67.77,1.44,1.61,2.22,2.38a8,8,0,0,0-3.86,6.84h-3.22A11.19,11.19,0,0,1,177.09,219.26Z" transform="translate(-75.76 -2.49)" fill="#606161"/><path d="M200.49,228.48h-3.22a8,8,0,0,0-6.46-7.87,30,30,0,0,0-.35-3.31A11.28,11.28,0,0,1,200.49,228.48Z" transform="translate(-75.76 -2.49)" fill="#606161"/><path d="M177.09,219.26c.67.77,1.44,1.61,2.22,2.38a8,8,0,0,0-3.86,6.84h-3.22A11.19,11.19,0,0,1,177.09,219.26Z" transform="translate(-75.76 -2.49)" fill="url(#linear-gradient-6)"/><path d="M190.46,217.3a11.28,11.28,0,0,1,10,11.18" transform="translate(-75.76 -2.49)" fill="url(#linear-gradient-7)"/><path d="M170.76,207.6a1.94,1.94,0,0,0,.47,1.14,1.85,1.85,0,0,0,1.08.4,15.37,15.37,0,0,0,8.43-1.31,5.64,5.64,0,0,0,2.86-2.49c.68-1.49.21-3.21-.17-4.81-2.68-11.25-.21-23.16-2.13-34.57.1.65-14.69-4.19-15.83-4.07-5,.54-.92,11.05-.26,14.73Z" transform="translate(-75.76 -2.49)" fill="#68e1fd"/><path d="M198.72,129.43l-13.5,27.49-3.79,10.18c1.67,11.16-.61,22.73,2,33.72.39,1.61.87,3.34.19,4.82a5.67,5.67,0,0,1-2.86,2.48,15.39,15.39,0,0,1-8.45,1.32,1.74,1.74,0,0,1-1.06-.39,1.87,1.87,0,0,1-.48-1.16q-2.76-15.46-5.56-31c-.39-2.06-1.8-6.24-2.13-9.61q0-.53-.06-1c-.71-11.11,16.48-44.54,18.22-52.21,2-8.58,13.31-15.08,13.31-15.08C199.94,104.78,198.72,129.43,198.72,129.43Z" transform="translate(-75.76 -2.49)" fill="url(#linear-gradient-8)"/><path d="M214.79,113.47" transform="translate(-75.76 -2.49)" fill="#68e1fd"/><path d="M213.16,90l19.73,51.41-18.25-20.67,1.36-9.35-6.34-5.13-1.5-14.48S212.14,86.83,213.16,90Z" transform="translate(-75.76 -2.49)" fill="#68e1fd"/><path d="M213.05,89.86l19.84,51.52-18.25-20.67,1.25-9.46-6.34-5.13L208,91.64S212,86.71,213.05,89.86Z" transform="translate(-75.76 -2.49)" fill="url(#linear-gradient-9)"/><polygon points="148.73 100.57 148.39 105.44 150.76 107.36 150.42 127.38 157.13 138.88 158.19 123.8 153.48 107.47 154.95 103.97 152.91 100.27 148.73 100.57" fill="#606161"/><polygon points="148.73 100.57 148.39 105.44 150.76 107.36 150.42 127.38 157.13 138.88 158.19 123.8 153.48 107.47 154.95 103.97 152.91 100.27 148.73 100.57" fill="url(#linear-gradient-10)"/><path d="M222.33,106.23" transform="translate(-75.76 -2.49)" fill="#606161"/><path d="M226.56,103.14c-1.62.08-5.21,2.4-6.24,3.65A17.66,17.66,0,0,0,218,111c-2.75-4.28-3.47-9.51-4.11-14.56a44.14,44.14,0,0,1-.69-5.83c1,.35,1.53,2.7,2,3.65a28.76,28.76,0,0,0,2.54,3.91,27.7,27.7,0,0,0,3.12,3.46C221.5,102.22,225.72,103.19,226.56,103.14Z" transform="translate(-75.76 -2.49)" fill="#fff"/><path d="M242.27,45.07a7.23,7.23,0,0,1,.54,5.5,2.59,2.59,0,0,1-1.56,1.79,3.23,3.23,0,0,1-1.9-.27l-3.24-1.15a11.88,11.88,0,0,0-3.34-.84,9.32,9.32,0,0,0-3.38.58c-3.42,1.15-6.72,3.22-10.32,3-1.28-.09-2.65-.47-3.81.1a4.23,4.23,0,0,0-1.93,3.12c-.6,3,0,6.19-.4,9.26-.05.37-.19.83-.56.89a.88.88,0,0,1-.5-.11,25.42,25.42,0,0,1-3-2.36,2,2,0,0,0-2.85.2c-1-3.12-3.39-6.3-4.11-9.51s-.08-7.08,2.68-8.88a2.11,2.11,0,0,0,.63-.52,1.9,1.9,0,0,0,.16-1.21c-.21-4.19,3-8,6.79-9.71s8.18-1.76,12.37-1.52c3.14.17,6.4.54,9.09,2.19,2,1.21,3,3,4.45,4.75S241.28,43.13,242.27,45.07Z" transform="translate(-75.76 -2.49)" fill="#606161"/><path d="M242.27,45.07a7.23,7.23,0,0,1,.54,5.5,2.59,2.59,0,0,1-1.56,1.79,3.23,3.23,0,0,1-1.9-.27l-3.24-1.15a11.88,11.88,0,0,0-3.34-.84,9.32,9.32,0,0,0-3.38.58c-3.42,1.15-6.72,3.22-10.32,3-1.28-.09-2.65-.47-3.81.1a4.23,4.23,0,0,0-1.93,3.12c-.6,3,0,6.19-.4,9.26-.05.37-.19.83-.56.89a.88.88,0,0,1-.5-.11,25.42,25.42,0,0,1-3-2.36,2,2,0,0,0-2.85.2c-1-3.12-3.39-6.3-4.11-9.51s-.08-7.08,2.68-8.88a2.11,2.11,0,0,0,.63-.52,1.9,1.9,0,0,0,.16-1.21c-.21-4.19,3-8,6.79-9.71s8.18-1.76,12.37-1.52c3.14.17,6.4.54,9.09,2.19,2,1.21,3,3,4.45,4.75S241.28,43.13,242.27,45.07Z" transform="translate(-75.76 -2.49)" fill="url(#linear-gradient-11)"/><path d="M209.29,70.14c-.09-.82.5-1.62.36-2.43a1.66,1.66,0,0,0-1.77-1.24,1.05,1.05,0,0,0-.43.11c-.49.25-.58.91-.57,1.46a8.79,8.79,0,0,0,1.83,5.74,1.44,1.44,0,0,0,1,.62c.55,0,.94-.58,1-1.13s.21-1.47-.25-1.81S209.38,71,209.29,70.14Z" transform="translate(-75.76 -2.49)" fill="url(#linear-gradient-12)"/><path d="M255.23,280.91,254,386.37c-6.46-.42-10.86-.52-10.86-.52L239.8,283l-8-49.41s10.7,1.45,13.72,7.49S255.23,280.91,255.23,280.91Z" transform="translate(-75.76 -2.49)" fill="url(#linear-gradient-13)"/><path d="M208.75,208.94s0,.35-.07,1.06c-.06.93-.19,2.54-.35,4.69-2.12,29.06-11.73,158.72-16.17,167.18a11.56,11.56,0,0,1-4.21-2.74l6.62-97.9L198,211.67a1.87,1.87,0,0,1-.61-1.15c-.23-3.12-2.19-43.17-3.25-74.35l4.6-6.75Z" transform="translate(-75.76 -2.49)" fill="url(#linear-gradient-14)"/><polygon points="157.13 138.88 160.15 206.61 162.56 206 158.49 133.75 157.13 138.88" fill="url(#linear-gradient-15)"/><rect x="83.23" y="225.84" width="71.94" height="57.92" rx="9.45" fill="#606161"/><rect x="83.23" y="225.84" width="71.94" height="57.92" rx="9.45" fill="url(#linear-gradient-16)"/><path d="M256.07,90.92a1.9,1.9,0,0,0-.29.67,2,2,0,0,0,.72,1.47c.56.61,1.41,1.27,2.12.85a2,2,0,0,0,.59-.69A61.82,61.82,0,0,1,262.75,88c1-1.32,3.73-2.78,4.15-4.42.22-.83-1.08-1.7-2.16-1.5-1.26.24-3.35,2.76-4.29,3.64A24.4,24.4,0,0,0,256.07,90.92Z" transform="translate(-75.76 -2.49)" fill="#fff"/><path d="M173.24,210.84a12.82,12.82,0,0,0,4.85-.5c.67-.21,1.32-.46,2-.72,1.83-.73,3.75-1.52,4.94-3.08a.77.77,0,0,0,.2-.45.79.79,0,0,0-.15-.41l-1-1.79a4.59,4.59,0,0,1-2.34,2.81,13.72,13.72,0,0,1-3.57,1.17l-4.45,1c-.45.1-1.06.14-1.16.67S172.8,210.84,173.24,210.84Z" transform="translate(-75.76 -2.49)" fill="#fff"/><path d="M244.8,404.57a68.94,68.94,0,0,1,11.11,2.22,5,5,0,0,1,.7-3.06c1,2,3.7,2.31,5.95,2.37l16,.45a4,4,0,0,0,2.76-.6,3.75,3.75,0,0,0,1-2.77c.21-4.8-1.55-10.25-6-12.18-2.58-1.12-5.52-.82-8.33-.63-6.85.46-14.3-1.81-20.9-1.13-3.9.41-3.37-.06-3.59,4.32C243.33,397.14,244.12,401.06,244.8,404.57Z" transform="translate(-75.76 -2.49)" fill="#606161"/><path d="M182.78,402.06a8.72,8.72,0,0,0,1.7,4.89c1.46,1.76,3.8,2.5,6,2.95a39.12,39.12,0,0,0,9.9.72c2.8-.15,5.84-.74,7.67-2.87a7.21,7.21,0,0,0,1.44-6,11.33,11.33,0,0,0-3-5.53C205,394.63,203,393,203,390.84a10.11,10.11,0,0,0,.1-2.12,2.88,2.88,0,0,0-3-1.93,14.33,14.33,0,0,0-3.7.92,13,13,0,0,1-6.59.22c-1.85-.45-2.7-1.6-4.1-.1-1.26,1.34-1.76,5-2.2,6.74A23.68,23.68,0,0,0,182.78,402.06Z" transform="translate(-75.76 -2.49)" fill="#606161"/><path d="M244.8,404.57a68.94,68.94,0,0,1,11.11,2.22,5,5,0,0,1,.7-3.06c1,2,3.7,2.31,5.95,2.37l16,.45a4,4,0,0,0,2.76-.6,3.75,3.75,0,0,0,1-2.77c.21-4.8-1.55-10.25-6-12.18-2.58-1.12-5.52-.82-8.33-.63-6.85.46-14.3-1.81-20.9-1.13-3.9.41-3.37-.06-3.59,4.32C243.33,397.14,244.12,401.06,244.8,404.57Z" transform="translate(-75.76 -2.49)" fill="url(#linear-gradient-17)"/><path d="M182.78,402.06a8.72,8.72,0,0,0,1.7,4.89c1.46,1.76,3.8,2.5,6,2.95a39.12,39.12,0,0,0,9.9.72c2.8-.15,5.84-.74,7.67-2.87a7.21,7.21,0,0,0,1.44-6,11.33,11.33,0,0,0-3-5.53C205,394.63,203,393,203,390.84a10.11,10.11,0,0,0,.1-2.12,2.88,2.88,0,0,0-3-1.93,14.33,14.33,0,0,0-3.7.92,13,13,0,0,1-6.59.22c-1.85-.45-2.7-1.6-4.1-.1-1.26,1.34-1.76,5-2.2,6.74A23.68,23.68,0,0,0,182.78,402.06Z" transform="translate(-75.76 -2.49)" fill="url(#linear-gradient-18)"/><rect x="70.56" y="225.84" width="71.94" height="57.92" rx="9.45" fill="#606161"/><rect x="70.56" y="225.84" width="71.94" height="57.92" rx="9.45" fill="url(#linear-gradient-19)"/></svg>