<svg id="Layer_1" data-name="Layer 1" xmlns="http://www.w3.org/2000/svg" xmlns:xlink="http://www.w3.org/1999/xlink" viewBox="0 0 360.53 301.45"><defs><linearGradient id="linear-gradient" x1="247.01" y1="240.73" x2="418.65" y2="353.8" gradientUnits="userSpaceOnUse"><stop offset="0.01"/><stop offset="0.08" stop-opacity="0.69"/><stop offset="0.21" stop-opacity="0.32"/><stop offset="1" stop-opacity="0"/></linearGradient></defs><title>7</title><path d="M408.74,296.22c-3,14.25-9.28,27.51-20.12,37C369.48,350,341,350.93,316.07,345.56s-48.54-16.05-73.77-19.48c-32.5-4.43-65.23,3.41-97.88,6.6-19.33,1.89-39.93,1.89-56.78-7.76-16.34-9.35-26.87-26.71-31.92-44.85S50.5,242.84,50.54,224c.06-35.4,4.2-77.07,34.62-95.17,13.69-8.14,30.21-9.62,45.28-14.76,26-8.85,46.77-28.17,69.37-43.75,7.3-5,14.92-9.74,23.28-12.63,24.24-8.4,44.34-.3,67,6.74,24,7.48,47.28-5.86,71.46-.17,25.23,5.94,40.14,33,43.38,58.7s-2,51.74-1,77.64c.83,23.17,6.55,46,7.14,69.15A113.38,113.38,0,0,1,408.74,296.22Z" transform="translate(-50.53 -47.03)" fill="#68e1fd" opacity="0.18" style="isolation:isolate"/><path d="M408.74,296.22c-3,14.25-9.28,27.51-20.12,37L248.37,292.68l15.36-.8L351.3,305.7l-82.77-17.65,13.3-1.83Z" transform="translate(-50.53 -47.03)" fill="url(#linear-gradient)"/><path d="M380.26,140.06l-96.1,3.37c-4,.14-7,2.8-7,6.25v104c0,3.18,2.57,5.76,6.2,6.28L379,266.63a11.5,11.5,0,0,0,12.83-11.08l.38-104.07A11.7,11.7,0,0,0,380.26,140.06Z" transform="translate(-50.53 -47.03)" fill="#68e1fd" opacity="0.18" style="isolation:isolate"/><path d="M103.77,60.21l148.66,21.5a10.84,10.84,0,0,1,9.29,10.73V244.12a10.85,10.85,0,0,1-8.17,10.51L106.07,292.11A18.83,18.83,0,0,1,82.6,273.93L81.9,79.22A19.14,19.14,0,0,1,103.77,60.21Z" transform="translate(-50.53 -47.03)" fill="#fff" opacity="0.54" style="isolation:isolate"/><g opacity="0.18" style="isolation:isolate"><path d="M94.73,305.69a22.61,22.61,0,0,1-22.55-22.53L71.41,70.05A22.94,22.94,0,0,1,97.63,47.26l162.7,23.53a13.94,13.94,0,0,1,11.88,13.73v166A13.86,13.86,0,0,1,261.76,264L100.35,305A23,23,0,0,1,94.73,305.69ZM94.34,51A18.92,18.92,0,0,0,75.41,70l.77,213.1a18.6,18.6,0,0,0,23.19,18l161.4-41a9.87,9.87,0,0,0,7.44-9.57v-166a9.92,9.92,0,0,0-8.46-9.77L97.06,51.22A19.24,19.24,0,0,0,94.34,51Z" transform="translate(-50.53 -47.03)" fill="#68e1fd"/></g><polygon points="119.02 80.51 201.34 80.51 201.34 150.86 118 166.11 119.02 80.51" fill="#68e1fd" opacity="0.18" style="isolation:isolate"/><path d="M253,169.86c-3.63,2.51-4.53,7.4-5.12,11.77-.76,5.62-1.5,11.51.49,16.82,9.27-3.24,16.08-11,22.45-18.51a10.19,10.19,0,0,0,2.67-4.61,7.8,7.8,0,0,0-1.21-5c-1.83-3.25-4.68-5.78-7.23-8.49-8-8.54-13.48-19.16-18.72-29.65-.5-1-3.17,2.38-3.34,2.74-.82,1.67-.73,3.89-.76,5.7a26.34,26.34,0,0,0,1,9C245.59,156.51,249.47,163.43,253,169.86Z" transform="translate(-50.53 -47.03)" fill="#68e1fd" opacity="0.18" style="isolation:isolate"/><path d="M234.29,175c-4.55-2.26-8.7-5.25-13.13-7.74-1.51-.84-3.38-1.63-4.87-.78s-1.76,3.08-1,4.64a10.43,10.43,0,0,0,3.68,3.64l8.19,5.77a37.06,37.06,0,0,0,5,3.12,38.38,38.38,0,0,0,7,2.39l3.86,1c2.26.61,4.78,1.21,6.86.13a4.87,4.87,0,0,0,2.57-4.52c-.27-4.13-3.67-4.27-6.76-4.45A29.22,29.22,0,0,1,234.29,175Z" transform="translate(-50.53 -47.03)" fill="#68e1fd" opacity="0.18" style="isolation:isolate"/><path d="M266.7,284.08a4.65,4.65,0,0,0-2.14,2,1,1,0,0,0-.09.63,1.16,1.16,0,0,0,.76.65,13.86,13.86,0,0,0,7.67.32,42.09,42.09,0,0,1,7.69-1.12,1.46,1.46,0,0,0,1.23-.34,1.33,1.33,0,0,0,.23-.81,15.44,15.44,0,0,0-1.15-6.58c.06.13-6.8.4-7.39.81-1.09.75-2,1.71-3.16,2.41S267.91,283.39,266.7,284.08Z" transform="translate(-50.53 -47.03)" fill="#282328"/><path d="M275.65,235s.75,19.65,3,30.72,2.44,13.89,2.44,13.89h-6.2s-9.57-31.34-12-38.48-3.57-11.82-3.57-11.82Z" transform="translate(-50.53 -47.03)" fill="#282328"/><path d="M253.11,228.06s1,24.78,2.46,39.14S257,284.93,257,284.93s5.63,1.69,7.32,0l2.81-40.54,1.42-10Z" transform="translate(-50.53 -47.03)" fill="#473f47"/><path d="M225.83,158.89c-.22-1.29-.2-2.63-.31-3.94a2.93,2.93,0,0,0-.4-1.46,1.13,1.13,0,0,0-1.34-.44c-.58.29-.6,1.1-.59,1.76s-.15,1.5-.8,1.62a1.08,1.08,0,0,1-.7-.15,2.31,2.31,0,0,1-1.22-1.72c-.06-.43,0-.87-.08-1.3-.25-1.25-1.85-1-2.6-.39a4.9,4.9,0,0,0-1,1.49,10.51,10.51,0,0,0-1.17,3c-.79,4.31,4.4,5.24,6.59,8a9.06,9.06,0,0,0,1,1.21,2.75,2.75,0,0,0,4.53-1.63c.25-1.61-.92-3-1.49-4.58A8,8,0,0,1,225.83,158.89Z" transform="translate(-50.53 -47.03)" fill="#ffbbab"/><path d="M250.67,136.41a6.68,6.68,0,0,0-3.45-3.94,1.65,1.65,0,0,0-1.15-.12,1.39,1.39,0,0,0-.79,1.45,3.85,3.85,0,0,0,.66,1.63,2.35,2.35,0,0,1,.41,1,.78.78,0,0,1-.56.86c-.32.05-.67-.17-1,0a.59.59,0,0,0-.21.74,1.5,1.5,0,0,0,.59.58,15.69,15.69,0,0,1,2,1.22c1.14,1,1.5,2.62,2.35,3.88a.66.66,0,0,0,.34.3.57.57,0,0,0,.36-.06,2.74,2.74,0,0,0,1.82-2.87A25.49,25.49,0,0,0,250.67,136.41Z" transform="translate(-50.53 -47.03)" fill="#ffbbab"/><path d="M263.37,153.41a16.74,16.74,0,0,1-2.48-3.19l-7.48-11.4-5.61,5.71a1.38,1.38,0,0,0-.45.68,1.47,1.47,0,0,0,.23.9l4.08,7.89a21.54,21.54,0,0,0,1.78,3,32.75,32.75,0,0,0,2.33,2.54c2.76,2.87,5,6.3,8.42,8.4a2.07,2.07,0,0,0,1,.37,2.23,2.23,0,0,0,1.16-.36c2.71-1.43,7.93-3.75,6.19-7.66C270.93,156.76,266,155.88,263.37,153.41Z" transform="translate(-50.53 -47.03)" fill="#fff"/><path d="M263.37,153.41a16.74,16.74,0,0,1-2.48-3.19l-7.48-11.4-5.61,5.71a1.38,1.38,0,0,0-.45.68,1.47,1.47,0,0,0,.23.9l4.08,7.89a21.54,21.54,0,0,0,1.78,3,32.75,32.75,0,0,0,2.33,2.54c2.76,2.87,5,6.3,8.42,8.4a2.07,2.07,0,0,0,1,.37,2.23,2.23,0,0,0,1.16-.36c2.71-1.43,7.93-3.75,6.19-7.66C270.93,156.76,266,155.88,263.37,153.41Z" transform="translate(-50.53 -47.03)" fill="#fff" opacity="0.1"/><path d="M253.82,144.2a5.54,5.54,0,0,1-.53-4,4.51,4.51,0,0,1,1.53,1.45c3.65,4.75,6.62,10.15,11.29,13.91a9.81,9.81,0,0,1,1.62,1.46c.87,1.08.94,3.57-1,3.52-1.39,0-3-2.08-3.9-3a41.33,41.33,0,0,1-9-13.39Z" transform="translate(-50.53 -47.03)" fill="#020202" opacity="0.1"/><path d="M263.62,147.41a4.1,4.1,0,0,1-1,2.26c-.84,1.3-1.31,3.08-.47,4.39a6.53,6.53,0,0,0,3,2c1.1.51,2.26,1.35,2.32,2.56,0,.66-.22,1.47.3,1.89a1.46,1.46,0,0,0,.87.23c1.74.09,3.48.1,5.22,0a1.84,1.84,0,0,0,.87-.18,2.18,2.18,0,0,0,.7-1.43c.59-2.43,2.47-4.32,3.48-6.61a10,10,0,0,0-1.33-10.14,2.92,2.92,0,0,0-1.06-.89,3.25,3.25,0,0,0-1.28-.16c-2.42,0-5.06,0-7.1,1.4C266.39,144,263.49,145.14,263.62,147.41Z" transform="translate(-50.53 -47.03)" fill="#ffbbab"/><path d="M268.53,140.16a2.5,2.5,0,0,0,2.75,2.15c-.27.44.3.94.8,1s1.13.13,1.38.58c.11.2.11.45.24.65s.57.4.77.69a1.34,1.34,0,0,1,0,1.14l-.88,2.76a1.06,1.06,0,0,1,1.73-.14,1.48,1.48,0,0,1-.35,1.83,9.74,9.74,0,0,1-1.71,1.09c.43.94,2,.94,2.29,1.93a2,2,0,0,1,0,.9l-.57,2.61a4,4,0,0,0,2-.62l.12.91c.22-.4,1-.14.92.32a31.15,31.15,0,0,0,7.14-6.8,1.89,1.89,0,0,0,.54-1.3,5.53,5.53,0,0,0-.18-.7,3.3,3.3,0,0,1,.12-1.32,5.87,5.87,0,0,0-.59-4.3c-1-1.59-2.94-2.29-4.64-3.1a24.61,24.61,0,0,1-5.95-3.94c-.87-.78-.85,0-1.56.24s-1.24-.15-1.88.13C269.82,137.42,268.42,138.87,268.53,140.16Z" transform="translate(-50.53 -47.03)" fill="#fc682d"/><path d="M282,185.64c.17,6.53.67,13.06.58,19.59-.13,9.43-1.5,18.79-2.86,28.12a1.89,1.89,0,0,1-.53,1.27,1.84,1.84,0,0,1-1,.28,46.18,46.18,0,0,1-10.69-.66,74.51,74.51,0,0,1-13.24-3.75c-3.36-1.25-7.14-3.28-7.55-6.84a10.13,10.13,0,0,1,.24-3c1.38-7.57,2.53-15.23,4-22.76l.93-4.76c.18-.91.36-1.83.61-2.72.31-1.09.73-2.15,1.14-3.2.87-2.19,1.73-4.39,2.6-6.58l.06-.14c-8.12,3.38-18.3-.09-25.64-4-3.28-1.76-6.59-4.21-7.54-7.82a3.45,3.45,0,0,1,0-2.06,4.15,4.15,0,0,1,.9-1.31,36.33,36.33,0,0,1,2.8-2.75,3.21,3.21,0,0,1,1.2-.77c1.22-.35,2.35.68,3.27,1.57a26.55,26.55,0,0,0,20,7.29,15.38,15.38,0,0,0,5.8-1.39,21.85,21.85,0,0,0,4.43-3.17,30.63,30.63,0,0,0,4.91-4.88,3.75,3.75,0,0,1,1.09-1.15,3.39,3.39,0,0,1,1.55-.31c2.14-.09,4.48-.51,6.59-.43s3,1.43,4.29,3a15.25,15.25,0,0,1,2.94,4.73c1,3,0,6.19-.43,9.29A53.12,53.12,0,0,0,282,185.64Z" transform="translate(-50.53 -47.03)" fill="#fff"/><path d="M282,185.64c.17,6.53.67,13.06.58,19.59-.13,9.43-1.5,18.79-2.86,28.12a1.89,1.89,0,0,1-.53,1.27,1.84,1.84,0,0,1-1,.28,46.18,46.18,0,0,1-10.69-.66,74.51,74.51,0,0,1-13.24-3.75c-3.36-1.25-7.14-3.28-7.55-6.84a10.13,10.13,0,0,1,.24-3c1.38-7.57,2.53-15.23,4-22.76l.93-4.76c.18-.91.36-1.83.61-2.72.31-1.09.73-2.15,1.14-3.2.87-2.19,1.73-4.39,2.6-6.58l.06-.14c-8.12,3.38-18.3-.09-25.64-4-3.28-1.76-6.59-4.21-7.54-7.82a3.45,3.45,0,0,1,0-2.06,4.15,4.15,0,0,1,.9-1.31,36.33,36.33,0,0,1,2.8-2.75,3.21,3.21,0,0,1,1.2-.77c1.22-.35,2.35.68,3.27,1.57a26.55,26.55,0,0,0,20,7.29,15.38,15.38,0,0,0,5.8-1.39,21.85,21.85,0,0,0,4.43-3.17,30.63,30.63,0,0,0,4.91-4.88,3.75,3.75,0,0,1,1.09-1.15,3.39,3.39,0,0,1,1.55-.31c2.14-.09,4.48-.51,6.59-.43s3,1.43,4.29,3a15.25,15.25,0,0,1,2.94,4.73c1,3,0,6.19-.43,9.29A53.12,53.12,0,0,0,282,185.64Z" transform="translate(-50.53 -47.03)" fill="#020202" opacity="0.1"/><path d="M249.83,289.42a4.63,4.63,0,0,0-2.14,2,1,1,0,0,0-.08.63,1.14,1.14,0,0,0,.75.65A13.9,13.9,0,0,0,256,293a41.86,41.86,0,0,1,7.68-1.12,1.48,1.48,0,0,0,1.24-.34,1.32,1.32,0,0,0,.22-.81,15.61,15.61,0,0,0-1.14-6.58c0,.14-6.81.4-7.4.81-1.09.75-2,1.71-3.16,2.42S251,288.72,249.83,289.42Z" transform="translate(-50.53 -47.03)" fill="#282328"/><path d="M147.1,138.71l4.48,30.48c.46,3.18,1.24,6.69.92,9.91s-1,6.37-1.48,9.52a5.47,5.47,0,0,0,1.86-2.67c1.15,2.66.19,5.7.09,8.6a1.94,1.94,0,0,0,.16,1,1.35,1.35,0,0,0,1.71.42,3.46,3.46,0,0,0,1.37-1.34,17.9,17.9,0,0,0,2.74-6.88c.48-2.71-.53-3.81-1.32-6.11-.73-2.14,0-4.91.3-7.08a77.44,77.44,0,0,0-.3-18.19c-.33-3-.73-5.93-1.13-8.9l-.69-5.18-1.71-12.7c-.46-3.42-.85-7.18-3.12-10-2-2.44-5.18-3.2-7.83-4.64-2-1.1-6-2-6.27-4.77a6.43,6.43,0,0,1,1-3.3,28.24,28.24,0,0,0,2.8-14.29c-.27-4-1.19-9.39-4.09-12.41a8.44,8.44,0,0,0-8.26-2.45,9.38,9.38,0,0,0-5.77,6.11,23.26,23.26,0,0,0-.84,8.64,37,37,0,0,0,1.39,9.42c.75,2.4,3.18,4.89,2.7,7.51-.43,2.32-2.81,3.1-4.69,3.88a22.17,22.17,0,0,0-6.5,4,17.36,17.36,0,0,0-4,6.43c-1.78,4.55-2.16,8.85-2.53,13.58-.43,5.45-1.19,10.9-1.79,16.33a47.45,47.45,0,0,0-.37,5.05c0,4.06,1,8.06,1.36,12.11a36,36,0,0,1-.44,11c-.25,1.12-.51,2.24-.66,3.37a16.17,16.17,0,0,0,.17,5.42,8.29,8.29,0,0,0,2,4.07,2.6,2.6,0,0,0,1,.72,1.25,1.25,0,0,0,1.21-.22,1.91,1.91,0,0,0,.43-1.3A32.44,32.44,0,0,0,111,189c0-.43,0-1,.37-1.15l.47,1.32c.1.28.28.61.57.61s.43-.28.52-.53c.8-2.3-.51-4.91-.71-7.2-.25-2.64,1-5.25,1.66-7.77,1-4.22.53-8.63.54-13a77.31,77.31,0,0,1,1-11.57c.29-1.92.63-3.83,1-5.73.25-1.33,1.09-3.35.55-4.64.76,7.27,1.69,14.53,2.53,21.79a58.23,58.23,0,0,1,.56,12.15c-.74,7.59-2.59,14.49-2.45,22.25.15,8.42,1.15,16.82.86,25.25-.32,8.88-2.06,17.82-.66,26.6,1.34,8.33,5.47,16.83,2.77,24.83a8.14,8.14,0,0,0-.55,2.1c-.11,1.85,1.47,3.46,3.23,4a12.68,12.68,0,0,0,5.52.13c1.72-.21,3.65-.54,4.62-2,1.81-2.68-1.13-5.84-1.79-8.4a59.34,59.34,0,0,1-1.4-10c-.41-5.67-.56-11.36-.59-17,0-5.34.55-11-.09-16.23a43.67,43.67,0,0,1,1-15.15c.36-1.56.78-3.1,1.23-4.63.33-1.14.53-3.27,1.42-4.11a18.6,18.6,0,0,1,2,6.85,123.48,123.48,0,0,1,.93,14.48c.18,5,.36,10,.83,15,.88,9.41,2.76,18.94.89,28.2-.38,1.92-.91,4-.05,5.74a5.3,5.3,0,0,0,5.14,2.58,13.15,13.15,0,0,0,5.67-2.09A3.31,3.31,0,0,0,150,270.5c.56-1.11-.18-2.41-.79-3.49-3.62-6.38-3.41-14.21-2.24-21.45s3.23-14.42,2.95-21.75a100.45,100.45,0,0,0-1.7-12.16c-1.5-9.25-.66-18-.78-27.19-.11-7.77-1.77-15.41-2.69-23.12A46.75,46.75,0,0,1,147.1,138.71Z" transform="translate(-50.53 -47.03)" fill="#68e1fd" opacity="0.18" style="isolation:isolate"/><g opacity="0.18" style="isolation:isolate"><path d="M194.93,114c-2.86,0-5.55-2-7.15-4a35.85,35.85,0,0,1-2.48-3.63,27.72,27.72,0,0,0-3-4.2,13.92,13.92,0,0,0-13.66-3.91l-.27-1a15,15,0,0,1,14.66,4.19,28.76,28.76,0,0,1,3.1,4.35,37.13,37.13,0,0,0,2.4,3.53c1.73,2.12,4.8,4.29,7.78,3.41a8.68,8.68,0,0,0,4-3.22,53.05,53.05,0,0,0,3.57-5.56,36.38,36.38,0,0,1,5.54-7.82c1.42-1.41,3.68-3.05,6.25-3a8.19,8.19,0,0,1,4.85,2.12,29.46,29.46,0,0,1,5.18,6.25c.87,1.28,1.77,2.59,2.76,3.78,2.4,2.89,6.59,5.76,10.51,4.33,2.65-1,4.23-3.5,5.91-6.17s3.59-5.74,6.81-6.63l.26,1c-2.84.78-4.49,3.41-6.23,6.19s-3.43,5.49-6.41,6.57c-4.4,1.61-9-1.48-11.62-4.62-1-1.22-1.93-2.56-2.82-3.86a28.47,28.47,0,0,0-5-6,7.22,7.22,0,0,0-4.24-1.89c-2.22-.1-4.24,1.4-5.52,2.67a35.74,35.74,0,0,0-5.38,7.61,52.41,52.41,0,0,1-3.64,5.67,9.6,9.6,0,0,1-4.54,3.57A6.09,6.09,0,0,1,194.93,114Z" transform="translate(-50.53 -47.03)" fill="#68e1fd"/></g><path d="M169.6,114.54l-.1-1a25.48,25.48,0,0,0,8.38-2.29,11.49,11.49,0,0,0,3.7-2.49,15.36,15.36,0,0,0,2.25-3.59c.24-.46.47-.93.73-1.39,2-3.64,6.14-7.77,11.18-7.37,3.65.28,6.57,2.85,8.37,5,1,1.19,1.93,2.49,2.81,3.74a44.55,44.55,0,0,0,3,3.9,7.38,7.38,0,0,0,3.13,2.35c2.38.76,4.85-.75,6.24-2.27a22.29,22.29,0,0,0,2.85-4.3c.38-.68.76-1.36,1.17-2,1.75-2.85,3.68-4.51,5.88-5.08a9.41,9.41,0,0,1,5.89.65,17.56,17.56,0,0,1,5.6,3.6c.52.51,1,1,1.5,1.57a21.89,21.89,0,0,0,2.27,2.25A5.62,5.62,0,0,0,249,107.2l.21,1a6.61,6.61,0,0,1-5.42-1.65,22.9,22.9,0,0,1-2.38-2.34c-.47-.52-1-1-1.46-1.53a16.62,16.62,0,0,0-5.27-3.4,8.56,8.56,0,0,0-5.27-.61c-1.94.51-3.67,2-5.28,4.65-.4.65-.77,1.31-1.14,2a24,24,0,0,1-3,4.49c-1.59,1.74-4.45,3.45-7.29,2.54a8.42,8.42,0,0,1-3.58-2.64,47.36,47.36,0,0,1-3-4c-.87-1.24-1.77-2.51-2.76-3.67-1.68-2-4.38-4.36-7.69-4.61-4.59-.33-8.36,3.47-10.23,6.86-.24.44-.48.9-.71,1.36a16.12,16.12,0,0,1-2.4,3.8,12.43,12.43,0,0,1-4,2.73A26.74,26.74,0,0,1,169.6,114.54Z" transform="translate(-50.53 -47.03)" fill="#68e1fd"/><path d="M267.51,234.24a74.51,74.51,0,0,1-13.24-3.75c-3.36-1.25-7.14-3.28-7.55-6.84a10.13,10.13,0,0,1,.24-3c1.38-7.57,2.53-15.23,4-22.76l.93-4.76c.18-.91.36-1.83.61-2.72.31-1.09.73-2.15,1.14-3.2.87-2.19,1.73-4.39,2.6-6.58,3.13-.87,6.1-1.38,9.17-3.26a341.24,341.24,0,0,1-6.93,33.79c-1.41,5.47-2.74,12,1,16.19C261.86,230,266,231.41,267.51,234.24Z" transform="translate(-50.53 -47.03)" fill="#fff"/><polygon points="323.01 169.71 266.42 169.71 266.42 62.49 323.01 59.05 323.01 169.71" fill="#68e1fd" opacity="0.41" style="isolation:isolate"/><path d="M238.34,173.59c-4.57-1.63-9.22-3.25-12.87-6.53a2,2,0,0,1-.81-1.26,2.16,2.16,0,0,1,.91-1.56,9.91,9.91,0,0,1,2.2-1.67,3.32,3.32,0,0,1,2.68-.23,5.62,5.62,0,0,1,1.62,1.22A24.27,24.27,0,0,0,244,169.42c4.32.93,9.08,1,13.23-.66,2.41-1,7.61-7.28,10-6.36s1.31,5.6.17,7c-2.45,3.13-8.66,4.6-12.37,5.31A31.88,31.88,0,0,1,238.34,173.59Z" transform="translate(-50.53 -47.03)" fill="#fff"/><path d="M274.72,163.28a4.09,4.09,0,0,0,2.18-2.59,12.59,12.59,0,0,0-3.83-.19l-3.65.19-2.41.13c-1.5.07-1.53.73-1,1.76.26.49.92.89,1.24,1.4s.34,1.1.67,1.49c1,1.15,1.22.5,2.45-.24S273.33,164,274.72,163.28Z" transform="translate(-50.53 -47.03)" fill="#fff"/></svg>